<svg width="200" viewBox="0 0 1514 234" fill="none" xmlns="http://www.w3.org/2000/svg">
    <path d="M95.75 185.5L47.5 121.5L73 105.75L132.5 185.5H95.75ZM1.57952e-06 185.5V52H31.25V185.5H1.57952e-06ZM22 132V106H67.25V132H22ZM76 122.5L46.75 119L95.75 52H129.25L76 122.5ZM223.541 187.25C212.708 187.25 202.791 184.75 193.791 179.75C184.958 174.75 177.874 167.25 172.541 157.25C167.374 147.083 164.791 134.25 164.791 118.75C164.791 103.083 167.291 90.25 172.291 80.25C177.458 70.25 184.458 62.8333 193.291 58C202.124 53 212.208 50.5 223.541 50.5C236.708 50.5 248.291 53.3333 258.291 59C268.458 64.6667 276.458 72.5833 282.291 82.75C288.291 92.9167 291.291 104.917 291.291 118.75C291.291 132.583 288.291 144.667 282.291 155C276.458 165.167 268.458 173.083 258.291 178.75C248.291 184.417 236.708 187.25 223.541 187.25ZM149.541 234V52H179.291V83.5L178.291 119L180.791 154.5V234H149.541ZM220.041 160.5C227.541 160.5 234.208 158.833 240.041 155.5C246.041 152.167 250.791 147.333 254.291 141C257.791 134.667 259.541 127.25 259.541 118.75C259.541 110.083 257.791 102.667 254.291 96.5C250.791 90.1667 246.041 85.3333 240.041 82C234.208 78.6667 227.541 77 220.041 77C212.541 77 205.791 78.6667 199.791 82C193.791 85.3333 189.041 90.1667 185.541 96.5C182.041 102.667 180.291 110.083 180.291 118.75C180.291 127.25 182.041 134.667 185.541 141C189.041 147.333 193.791 152.167 199.791 155.5C205.791 158.833 212.541 160.5 220.041 160.5ZM317.393 185.5V52H348.643V140L422.393 52H450.893V185.5H419.643V97.5L346.143 185.5H317.393ZM515.68 185.5V71L522.93 78.5H468.68V52H593.68V78.5H539.68L546.93 71V185.5H515.68Z" fill="#222831"/>
    <path d="M682.488 188C654.322 187.667 632.488 181.583 616.988 169.75C601.488 157.75 593.738 140.667 593.738 118.5C593.738 96.5 601.488 79.6667 616.988 68C632.488 56.3333 654.572 50.3333 683.238 50C683.572 50 684.238 50 685.238 50C686.405 50 687.488 50 688.488 50C689.655 50 690.322 50 690.488 50C719.322 50 741.738 55.9167 757.738 67.75C773.905 79.4167 781.988 96.3333 781.988 118.5C781.988 140.833 773.905 158 757.738 170C741.738 182 719.238 188 690.238 188C690.072 188 689.322 188 687.988 188C686.822 188 685.655 188 684.488 188C683.488 188 682.822 188 682.488 188ZM684.488 162C684.822 162 685.572 162 686.738 162C688.072 162 688.905 162 689.238 162C703.405 162 715.072 160.417 724.238 157.25C733.405 153.917 740.238 149.083 744.738 142.75C749.238 136.25 751.488 128.167 751.488 118.5C751.488 109 749.238 101.167 744.738 95C740.238 88.6667 733.405 84 724.238 81C715.072 77.8333 703.405 76.25 689.238 76.25C688.905 76.25 688.072 76.25 686.738 76.25C685.572 76.25 684.822 76.25 684.488 76.25C670.655 76.25 659.322 77.9167 650.488 81.25C641.655 84.4167 635.072 89.0833 630.738 95.25C626.572 101.417 624.488 109.167 624.488 118.5C624.488 128 626.572 135.917 630.738 142.25C635.072 148.583 641.655 153.417 650.488 156.75C659.488 160.083 670.822 161.833 684.488 162ZM672.988 234V-1.0848e-05H702.488V234H672.988ZM886.566 185.5V158.5L884.816 152.75V105.5C884.816 96.3333 882.066 89.25 876.566 84.25C871.066 79.0833 862.733 76.5 851.566 76.5C844.066 76.5 836.65 77.6667 829.316 80C822.15 82.3333 816.066 85.5833 811.066 89.75L798.816 67C805.983 61.5 814.483 57.4167 824.316 54.75C834.316 51.9167 844.65 50.5 855.316 50.5C874.65 50.5 889.566 55.1667 900.066 64.5C910.733 73.6667 916.066 87.9167 916.066 107.25V185.5H886.566ZM844.566 187.25C834.566 187.25 825.816 185.583 818.316 182.25C810.816 178.75 804.983 174 800.816 168C796.816 161.833 794.816 154.917 794.816 147.25C794.816 139.75 796.566 133 800.066 127C803.733 121 809.65 116.25 817.816 112.75C825.983 109.25 836.816 107.5 850.316 107.5H889.066V128.25H852.566C841.9 128.25 834.733 130 831.066 133.5C827.4 136.833 825.566 141 825.566 146C825.566 151.667 827.816 156.167 832.316 159.5C836.816 162.833 843.066 164.5 851.066 164.5C858.733 164.5 865.566 162.75 871.566 159.25C877.733 155.75 882.15 150.583 884.816 143.75L890.066 162.5C887.066 170.333 881.65 176.417 873.816 180.75C866.15 185.083 856.4 187.25 844.566 187.25ZM1045.49 185.5L997.236 121.5L1022.74 105.75L1082.24 185.5H1045.49ZM949.736 185.5V52H980.986V185.5H949.736ZM971.736 132V106H1016.99V132H971.736ZM1025.74 122.5L996.486 119L1045.49 52H1078.99L1025.74 122.5ZM1125.32 185.5V71L1132.57 78.5H1078.32V52H1203.32V78.5H1149.32L1156.57 71V185.5H1125.32ZM1274.63 187.25C1260.96 187.25 1248.79 184.333 1238.13 178.5C1227.46 172.5 1219.04 164.333 1212.88 154C1206.71 143.667 1203.63 131.917 1203.63 118.75C1203.63 105.417 1206.71 93.6667 1212.88 83.5C1219.04 73.1667 1227.46 65.0833 1238.13 59.25C1248.79 53.4167 1260.96 50.5 1274.63 50.5C1288.46 50.5 1300.71 53.4167 1311.38 59.25C1322.21 65.0833 1330.63 73.0833 1336.63 83.25C1342.79 93.4167 1345.88 105.25 1345.88 118.75C1345.88 131.917 1342.79 143.667 1336.63 154C1330.63 164.333 1322.21 172.5 1311.38 178.5C1300.71 184.333 1288.46 187.25 1274.63 187.25ZM1274.63 160.5C1282.29 160.5 1289.13 158.833 1295.13 155.5C1301.13 152.167 1305.79 147.333 1309.13 141C1312.63 134.667 1314.38 127.25 1314.38 118.75C1314.38 110.083 1312.63 102.667 1309.13 96.5C1305.79 90.1667 1301.13 85.3333 1295.13 82C1289.13 78.6667 1282.38 77 1274.88 77C1267.21 77 1260.38 78.6667 1254.38 82C1248.54 85.3333 1243.88 90.1667 1240.38 96.5C1236.88 102.667 1235.13 110.083 1235.13 118.75C1235.13 127.25 1236.88 134.667 1240.38 141C1243.88 147.333 1248.54 152.167 1254.38 155.5C1260.38 158.833 1267.13 160.5 1274.63 160.5ZM1445.75 187.25C1434.91 187.25 1425 184.75 1416 179.75C1407.16 174.75 1400.08 167.25 1394.75 157.25C1389.58 147.083 1387 134.25 1387 118.75C1387 103.083 1389.5 90.25 1394.5 80.25C1399.66 70.25 1406.66 62.8333 1415.5 58C1424.33 53 1434.41 50.5 1445.75 50.5C1458.91 50.5 1470.5 53.3333 1480.5 59C1490.66 64.6667 1498.66 72.5833 1504.5 82.75C1510.5 92.9167 1513.5 104.917 1513.5 118.75C1513.5 132.583 1510.5 144.667 1504.5 155C1498.66 165.167 1490.66 173.083 1480.5 178.75C1470.5 184.417 1458.91 187.25 1445.75 187.25ZM1371.75 234V52H1401.5V83.5L1400.5 119L1403 154.5V234H1371.75ZM1442.25 160.5C1449.75 160.5 1456.41 158.833 1462.25 155.5C1468.25 152.167 1473 147.333 1476.5 141C1480 134.667 1481.75 127.25 1481.75 118.75C1481.75 110.083 1480 102.667 1476.5 96.5C1473 90.1667 1468.25 85.3333 1462.25 82C1456.41 78.6667 1449.75 77 1442.25 77C1434.75 77 1428 78.6667 1422 82C1416 85.3333 1411.25 90.1667 1407.75 96.5C1404.25 102.667 1402.5 110.083 1402.5 118.75C1402.5 127.25 1404.25 134.667 1407.75 141C1411.25 147.333 1416 152.167 1422 155.5C1428 158.833 1434.75 160.5 1442.25 160.5Z" fill="#FF8D28"/>
</svg>
